<svg xmlns="http://www.w3.org/2000/svg" viewBox="0 0 290 90" aria-label="Signature Zoé Grêde" role="img">
  <!-- Stroke 1 : corps du Z + liaison vers le o -->
  <path
    fill="none" stroke="#6B1F2A" stroke-width="2.3"
    stroke-linecap="round" stroke-linejoin="round"
    d="M 12,22
       C 25,18 48,18 68,22
       L 14,70
       C 32,70 58,72 78,68
       C 90,65 98,56 98,48
       C 98,35 106,26 120,26
       C 134,26 142,37 140,52
       C 138,66 126,74 113,71
       C 100,68 95,55 101,46"
  />
  <!-- Stroke 2 : accent aigu du é (court, rapide) -->
  <path
    fill="none" stroke="#6B1F2A" stroke-width="2.1"
    stroke-linecap="round"
    d="M 150,35 L 166,22"
  />
  <!-- Stroke 3 : corps du é + barre médiane + volute finale -->
  <path
    fill="none" stroke="#6B1F2A" stroke-width="2.3"
    stroke-linecap="round" stroke-linejoin="round"
    d="M 142,53
       C 142,38 152,26 166,26
       C 180,26 188,38 186,53
       C 184,67 170,76 156,72
       C 142,68 140,54 146,46
       L 188,43
       M 14,82
       C 65,91 148,92 205,84
       C 242,78 265,68 278,58"
  />
</svg>
