<svg xmlns="http://www.w3.org/2000/svg" viewBox="0 0 100 100">
  <g transform="translate(7, 8) scale(1.96)">
    <path fill="#6B1F2A" d="M37.44,29.86c.39.11.68.24.85.43.18.18.32.37.46.56.11.17.3.27.53.33.26.06.48.05.67-.09.18-.12.33-.31.46-.59l3.41-6.7c.1-.22.16-.42.12-.59-.03-.17-.14-.31-.36-.41-.18-.09-.35-.12-.5-.06-.17.05-.31.16-.46.34l-1.16,1.66c-.59.85-1.14,1.52-1.61,2.03-.49.49-.98.85-1.45,1.07-.47.21-1.01.3-1.59.28-.57-.03-1.23-.14-2.01-.35l-9.84-2.55.05-.18,14.33-3.79c.4-.1.71-.12.95-.04.25.07.47.17.68.26.18.08.39.09.62.03.27-.08.44-.19.54-.41.1-.18.14-.43.12-.74l-.31-7.51c-.02-.25-.07-.45-.19-.59-.1-.14-.28-.19-.51-.18-.21,0-.38.07-.47.19-.13.12-.18.3-.22.53l-.2,2.03c-.11,1.03-.24,1.88-.41,2.55-.18.67-.42,1.21-.73,1.64-.31.43-.74.76-1.25,1.02-.52.26-1.16.48-1.93.69l-10.12,2.68,10.9-10.59c.29-.29.55-.46.81-.5.25-.06.49-.08.72-.1.2-.02.39-.12.55-.29.2-.19.3-.38.28-.61,0-.22-.1-.46-.27-.71l-3.95-6.4c-.15-.21-.29-.35-.45-.42-.16-.07-.33-.03-.54.1-.18.12-.28.25-.31.41-.05.16-.02.34.07.57l.81,1.86c.42.96.72,1.76.9,2.43.17.67.22,1.26.16,1.79-.06.52-.26,1.03-.59,1.51-.33.48-.77.98-1.35,1.54l-7.53,7.31,4.32-14.58c.12-.38.26-.67.46-.83.2-.17.38-.31.58-.44.17-.11.28-.29.35-.51.08-.27.07-.48-.06-.68-.12-.18-.3-.34-.58-.48L24.58.15c-.22-.11-.42-.17-.59-.14-.17.03-.31.13-.42.34-.09.18-.13.35-.08.51.04.16.16.31.33.46l1.63,1.22c.83.63,1.49,1.19,1.97,1.68.47.5.82,1,1.02,1.48.2.48.27,1.02.22,1.59-.04.58-.18,1.24-.41,2l-3.3,11.15-.58,1.97c-.29,1.02-1.21,1.79-2.33,1.82-1.12.03-2.08-.68-2.43-1.68l-.63-2.09-3.34-11.14c-.23-.77-.37-1.43-.42-2-.06-.58.02-1.12.21-1.61.21-.48.54-.98,1.02-1.48.49-.49,1.14-1.05,1.97-1.69l1.61-1.23c.18-.16.29-.3.33-.46.07-.15.03-.33-.08-.51-.11-.22-.24-.32-.42-.35-.17-.03-.37.02-.6.15l-6.56,3.66c-.28.15-.47.31-.58.5-.12.18-.14.4-.06.67.07.22.18.39.36.51.18.12.38.27.57.43.2.17.34.45.45.84l4.37,14.56-7.55-7.27c-.58-.55-1.01-1.06-1.35-1.54-.32-.47-.53-.98-.59-1.5-.06-.52,0-1.12.16-1.79.18-.68.48-1.48.89-2.44l.81-1.86c.08-.22.11-.4.06-.56-.03-.17-.14-.3-.31-.41-.2-.12-.37-.15-.54-.09-.16.06-.31.21-.44.42l-3.93,6.41c-.17.26-.25.5-.27.71-.01.23.08.43.28.61.17.16.36.27.57.28.22.01.46.04.7.1.26.04.53.21.81.5l10.96,10.55-10.15-2.64c-.78-.21-1.4-.43-1.93-.68-.52-.25-.94-.59-1.25-1.01-.31-.43-.56-.97-.75-1.64-.17-.67-.31-1.52-.42-2.56l-.21-2.01c-.04-.24-.1-.41-.23-.52-.09-.14-.27-.19-.47-.21-.24-.01-.41.05-.51.19-.12.13-.18.34-.18.59l-.29,7.51c-.02.31.02.56.12.75.1.21.28.33.54.39.22.06.44.06.63-.03.2-.1.42-.19.66-.26.25-.09.56-.07.95.03l14.35,3.73.06.18-9.83,2.59c-.77.21-1.43.32-2.01.36-.58.03-1.11-.06-1.59-.27-.48-.23-.97-.57-1.45-1.07-.47-.5-1.02-1.17-1.62-2.02l-1.17-1.66c-.16-.19-.29-.3-.45-.35-.15-.07-.33-.03-.52.07-.21.1-.32.23-.36.41-.03.17.01.37.13.6l3.44,6.68c.14.28.29.48.48.6.18.13.39.15.66.08.23-.06.41-.17.53-.34.12-.18.28-.37.45-.55.17-.2.45-.33.85-.44l12.85-3.39.3,1.01-5.97,5.8c-.57.56-1.09.98-1.58,1.29-.49.31-1,.5-1.52.55-.52.05-1.11-.03-1.78-.21-.67-.21-1.47-.53-2.41-.97l-1.84-.88c-.22-.08-.39-.12-.56-.07-.16.01-.3.13-.41.3-.13.18-.17.37-.11.53.06.16.19.31.4.46l6.27,4.14c.26.18.49.28.7.29.23.02.43-.06.62-.26.17-.17.27-.35.29-.55.02-.23.07-.46.13-.7.05-.26.23-.52.53-.8l7.68-7.45,1.15,3.85-.91,3.07c-.23.77-.47,1.38-.74,1.89-.27.52-.62.93-1.05,1.22-.44.29-.99.53-1.66.69-.69.15-1.53.27-2.57.34l-2.03.14c-.24.04-.41.09-.53.21-.14.09-.2.26-.22.47-.02.24.03.41.17.52.13.12.33.19.58.2l7.5.54c.31.03.56,0,.76-.09.21-.1.33-.27.41-.53.06-.22.07-.43-.02-.62-.09-.21-.17-.44-.24-.68s-.04-.56.07-.94l1.2-4.05,1.21,4.05c.12.39.15.7.08.95-.06.24-.15.46-.24.68-.07.19-.08.4-.01.62.09.27.21.44.43.53.19.09.44.13.75.1l7.5-.57c.25-.03.44-.08.57-.2.13-.11.19-.29.16-.53-.02-.2-.08-.37-.22-.46-.12-.12-.28-.17-.53-.2l-2.02-.13c-1.04-.07-1.9-.18-2.57-.32-.67-.16-1.23-.39-1.67-.68-.43-.3-.78-.71-1.06-1.22-.28-.51-.52-1.13-.76-1.9l-.92-3.07,1.14-3.86,7.72,7.43c.29.28.47.54.52.79.07.24.1.48.13.71.03.2.13.39.3.55.2.18.4.28.62.25.22-.02.46-.11.71-.29l6.25-4.17c.21-.15.34-.3.41-.46.05-.16.02-.34-.12-.53-.12-.18-.25-.28-.42-.31-.16-.04-.34,0-.56.09l-1.83.87c-.94.45-1.74.77-2.4.98-.66.19-1.25.26-1.78.22-.52-.04-1.03-.23-1.52-.55-.49-.31-1.01-.73-1.59-1.28l-6-5.78.3-1.01,12.86,3.34Z"/>
  </g>
</svg>
